<svg xmlns="http://www.w3.org/2000/svg" xmlns:xlink="http://www.w3.org/1999/xlink" width="500" zoomAndPan="magnify" viewBox="0 0 375 374.999991" height="500" preserveAspectRatio="xMidYMid meet" version="1.0"><rect x="-37.5" width="450" fill="#ffffff" y="-37.499999" height="449.999989" fill-opacity="1"/><rect x="-37.5" width="450" fill="#ffffff" y="-37.499999" height="449.999989" fill-opacity="1"/><path fill="#ea223f" d="M -99.992188 -105.449219 L 475.023438 -105.449219 L 475.023438 469.566406 L -99.992188 469.566406 Z M 191.992188 134.246094 C 193.863281 131.21875 192.542969 128.976562 189.191406 128.585938 C 189.175781 130.359375 188.949219 133.273438 189.46875 134.84375 C 190.550781 135.671875 191.007812 135.027344 191.992188 134.246094 Z M 195.90625 161.8125 C 195.425781 162.347656 193.464844 164.242188 193.332031 164.496094 L 193.6875 164.5 C 196.1875 163.050781 195.234375 163.132812 196.738281 160.953125 C 197.078125 160.648438 197.417969 160.34375 197.757812 160.039062 C 198.976562 156.6875 197.046875 153.078125 197.738281 149.65625 C 197.339844 150.582031 197.117188 151.222656 196.09375 151.71875 C 192.710938 153.371094 180.140625 153.898438 178.355469 150.128906 C 178.292969 148.945312 178.285156 149.007812 178.769531 147.921875 C 180.886719 146.125 183.261719 146.308594 186.015625 146.070312 C 184.625 145.042969 179.328125 146.210938 178.273438 147.636719 C 178.015625 148.941406 177.675781 153.765625 178.078125 154.902344 L 179.023438 155.828125 C 178.566406 156.503906 178.636719 156.371094 178.015625 156.9375 C 177.667969 159.339844 180.195312 164.589844 182.496094 164.492188 C 181.769531 163.394531 180.679688 163.164062 180.371094 162.117188 C 181.117188 161.777344 183.769531 162.570312 184.742188 162.753906 C 188.765625 163.519531 191.96875 162.789062 195.90625 161.8125 Z M 107.523438 226.078125 C 107.402344 209.324219 107.367188 192.570312 107.429688 175.816406 C 107.433594 173.65625 107.761719 159.585938 106.976562 158.546875 C 105.050781 157.972656 100.648438 158.476562 99.800781 157.933594 C 100.1875 156.59375 100.757812 156.171875 101.324219 155.046875 L 110.191406 137.644531 C 111.660156 134.769531 114.195312 129.457031 115.96875 127.046875 C 117.75 130.457031 131.460938 156.28125 131.320312 157.71875 C 129.484375 158.707031 125.65625 157.167969 124.144531 158.804688 C 123.925781 165.832031 124.394531 173.410156 124.203125 180.550781 C 124.160156 182.101562 123.996094 191.546875 124.121094 192.515625 C 125.066406 191.242188 124.746094 182.203125 124.742188 180.0625 L 124.6875 158.621094 C 127.183594 158.605469 130.167969 158.664062 132.625 158.539062 C 131.304688 154.96875 118.007812 128.878906 116.078125 126.679688 L 115.640625 126.625 C 114.496094 128.023438 99.152344 157.242188 99.085938 158.203125 C 100.152344 159.101562 104.976562 158.78125 106.625 158.769531 L 106.761719 224.953125 C 106.792969 230.398438 106.15625 243.910156 106.855469 248.425781 C 108.4375 242.984375 107.679688 235.65625 109.367188 229.949219 C 109.6875 228.871094 111.132812 222.269531 111.058594 221.648438 C 109.847656 223.261719 109.621094 227.480469 108.867188 229.195312 C 108.632812 229.644531 108.363281 230.105469 108.113281 230.550781 C 107.617188 229.816406 107.621094 227.25 107.523438 226.078125 Z M 206.652344 129.0625 C 205.90625 129.992188 205.890625 129.929688 205.757812 131.085938 C 204.320312 132.667969 203.335938 131.1875 202.113281 134.214844 C 200.417969 138.429688 204.304688 138.257812 205.96875 141.007812 C 205.960938 140.992188 206.441406 144.1875 206.519531 144.632812 L 206.328125 144.863281 C 204.96875 143.996094 203.175781 141.085938 201.621094 142.503906 C 201.761719 144.28125 202.207031 145.328125 203.554688 146.535156 C 204.46875 147.359375 205.351562 146.984375 206.417969 147.609375 L 206.511719 148.121094 L 207.382812 149.34375 L 207.953125 149.410156 C 208.402344 148.605469 208.253906 148.433594 208.242188 147.414062 C 209.890625 146.457031 210.75 147.457031 212.195312 145.199219 C 213.738281 142.789062 211.714844 139.90625 209.710938 138.695312 C 209.0625 138.3125 208.40625 137.941406 207.742188 137.589844 C 207.746094 136.566406 207.59375 135.078125 208.015625 134.28125 C 209.636719 134.828125 208.921875 136.363281 211.179688 135.617188 C 211.910156 134.429688 211.296875 132.734375 210.269531 132.09375 C 208.71875 131.125 207.527344 132.28125 207.703125 129.667969 C 207.238281 129.210938 207.28125 129.234375 206.652344 129.0625 Z M 206.652344 129.0625 " fill-opacity="0.008" fill-rule="nonzero"/><path fill="#ea223f" d="M 135.648438 81.769531 C 137.5 81.890625 150.054688 85.816406 150.5 87.066406 C 149.140625 88.910156 138.691406 92.460938 135.925781 94.097656 C 133.304688 95.652344 130.285156 97.332031 127.636719 99.042969 C 115.179688 107.109375 104.445312 117.570312 96.066406 129.816406 C 79.617188 153.707031 73.359375 183.164062 78.675781 211.675781 C 97.925781 310.796875 225.410156 335.808594 281.019531 252.507812 C 297.019531 228.109375 302.699219 198.371094 296.824219 169.796875 C 292.441406 147.804688 281.175781 127.414062 264.722656 112.027344 C 256.878906 104.695312 249.253906 100.042969 240.546875 94.222656 C 240.546875 91.726562 239.921875 84.050781 241.523438 82.601562 C 243.410156 82.269531 251.078125 87.152344 253.199219 88.433594 C 264.210938 95.472656 273.992188 103.941406 282.476562 113.875 C 309.117188 145.082031 317.703125 191.039062 304.746094 229.757812 C 294.695312 260.761719 272.65625 286.453125 243.542969 301.113281 C 214.039062 316.039062 179.769531 318.480469 148.445312 307.886719 C 117.878906 297.507812 92.625 275.519531 78.140625 246.671875 C 63.675781 217.695312 61.289062 184.167969 71.5 153.433594 C 80.421875 126.757812 98.28125 103.976562 122.058594 88.949219 C 126.792969 85.980469 130.6875 84.207031 135.648438 81.769531 Z M 135.648438 81.769531 " fill-opacity="1" fill-rule="nonzero"/><path fill="#000000" d="M 243.167969 148.277344 L 243.519531 148.433594 C 244.019531 149.394531 243.6875 181.683594 243.683594 184.921875 L 243.675781 263.5625 C 235.546875 263.726562 227.042969 263.609375 218.839844 263.707031 L 218.796875 203.355469 C 208.792969 212.4375 197.484375 221.582031 187.9375 230.8125 C 178.582031 221.878906 166.683594 211.707031 156.753906 203.296875 C 156.503906 207.710938 156.664062 213.546875 156.664062 218.070312 C 156.617188 233.273438 156.660156 248.476562 156.785156 263.679688 C 148.832031 263.835938 139.851562 263.75 131.886719 263.644531 C 131.816406 244.589844 131.519531 224.496094 131.957031 205.527344 C 141.496094 194.234375 153.234375 185 166.457031 178.382812 C 173.441406 184.164062 180.265625 191.035156 187.546875 196.949219 C 194.609375 191.507812 200.558594 185.84375 207.269531 180.015625 C 219.382812 169.605469 231.351562 159.023438 243.167969 148.277344 Z M 243.167969 148.277344 " fill-opacity="1" fill-rule="nonzero"/><path fill="#ea223f" d="M 251.539062 147.316406 C 257.242188 147.214844 262.945312 147.164062 268.648438 147.164062 L 268.652344 229.84375 L 268.675781 251.050781 C 268.695312 254.664062 268.730469 258.335938 268.730469 261.953125 C 268.730469 262.949219 268.667969 263.09375 268.121094 263.601562 C 262.640625 263.582031 256.984375 263.742188 251.496094 263.851562 C 251.265625 257.4375 251.449219 249.792969 251.429688 243.28125 L 251.339844 201.28125 L 251.328125 164.5 C 251.324219 161.53125 250.882812 149.167969 251.539062 147.316406 Z M 251.539062 147.316406 " fill-opacity="1" fill-rule="nonzero"/><path fill="#ea223f" d="M 243.90625 118.59375 C 243.921875 118.609375 243.9375 118.621094 243.949219 118.640625 C 244.890625 120.25 242.804688 139.867188 242.527344 143.210938 C 240.796875 142.242188 238.539062 140.550781 236.871094 139.371094 C 221.109375 160.847656 209.148438 171.753906 187.761719 188.023438 C 182.496094 183.894531 172.472656 176.039062 166.875 172.746094 C 143.480469 185.121094 124.503906 203.484375 114.300781 228.164062 C 113.339844 230.488281 112.527344 232.9375 111.445312 235.199219 C 111.164062 234.726562 111.386719 234.367188 111.523438 233.648438 C 116.128906 204.75 133.054688 182.3125 156.363281 165.605469 C 160.117188 162.914062 164.105469 160.53125 167.964844 157.988281 C 169.144531 159.019531 173.824219 162.328125 175.347656 163.417969 C 177.984375 165.304688 185.628906 172.066406 188.203125 172.925781 C 200.671875 162.476562 213.417969 153.625 223.742188 140.769531 C 225.5 138.582031 228.449219 135.851562 229.597656 133.34375 C 228.277344 132.777344 223.640625 130.984375 223.074219 130.054688 C 224.3125 128.320312 240.054688 121.042969 243.90625 118.59375 Z M 243.90625 118.59375 " fill-opacity="1" fill-rule="nonzero"/><path fill="#ea223f" d="M 188.105469 49.238281 C 189.933594 49.554688 194.257812 51.234375 196.164062 51.925781 C 202.226562 54.117188 208.269531 56.375 214.285156 58.699219 C 224.726562 62.523438 235.128906 66.457031 245.492188 70.5 C 247.414062 71.257812 250.863281 72.011719 252.402344 73.253906 L 252.363281 73.738281 C 250.863281 74.710938 239.074219 78.046875 236.324219 79.027344 C 237.257812 82.839844 236.546875 89.628906 236.613281 94.054688 C 238.863281 96.476562 239.574219 97.171875 237.195312 99.882812 C 238.160156 103.105469 239.003906 105.851562 239.6875 109.15625 C 237.054688 109.25 234.425781 109.296875 231.792969 109.289062 C 232.601562 106.207031 233.417969 103.394531 233.925781 100.234375 C 232.628906 97.574219 232.203125 96.277344 234.242188 93.925781 C 234.300781 89.296875 234.296875 84.667969 234.234375 80.039062 C 231.089844 80.765625 227.78125 81.796875 224.554688 82.578125 L 224.460938 78.144531 C 222.933594 77.09375 221.875 76.46875 220.257812 75.570312 C 211.613281 71.382812 200.285156 69.722656 190.664062 69.371094 C 180.582031 69.003906 159.8125 71.292969 152.28125 78.1875 L 152.171875 82.667969 C 145.726562 80.707031 139.296875 78.683594 132.890625 76.601562 C 130.914062 75.957031 126.074219 74.496094 124.402344 73.613281 L 124.347656 73.289062 C 125.859375 72.289062 126.648438 72.496094 128.03125 71.90625 C 132.191406 70.136719 136.511719 68.777344 140.75 67.191406 Z M 188.105469 49.238281 " fill-opacity="1" fill-rule="nonzero"/><path fill="#ea223f" d="M 106.976562 158.546875 C 105.050781 157.972656 100.648438 158.476562 99.800781 157.933594 C 100.1875 156.59375 100.757812 156.171875 101.324219 155.046875 L 110.191406 137.644531 C 111.660156 134.769531 114.195312 129.457031 115.96875 127.046875 C 117.75 130.457031 131.460938 156.28125 131.320312 157.71875 C 129.484375 158.707031 125.65625 157.167969 124.144531 158.804688 C 123.925781 165.832031 124.394531 173.410156 124.203125 180.550781 C 124.160156 182.101562 123.996094 191.546875 124.121094 192.515625 C 118.472656 200.304688 113.46875 212.421875 111.058594 221.648438 C 109.847656 223.261719 109.621094 227.480469 108.867188 229.195312 C 108.632812 229.644531 108.363281 230.105469 108.113281 230.550781 C 107.617188 229.816406 107.621094 227.25 107.523438 226.078125 C 107.402344 209.324219 107.367188 192.570312 107.429688 175.816406 C 107.433594 173.65625 107.761719 159.585938 106.976562 158.546875 Z M 106.976562 158.546875 " fill-opacity="1" fill-rule="nonzero"/><path fill="#ea223f" d="M 181.226562 72.679688 C 193.5625 72.101562 211.992188 73.320312 222.820312 79.398438 C 222.941406 82.824219 222.871094 86.714844 222.878906 90.179688 C 211.875 91.011719 203.4375 92.238281 193.21875 97.097656 C 191.691406 97.820312 189.851562 98.84375 188.328125 99.640625 C 179.554688 93.730469 164.640625 90.484375 153.988281 90.539062 C 154.070312 88.203125 153.5 80.042969 154.550781 79.261719 C 160.175781 75.074219 175 73.292969 181.226562 72.679688 Z M 181.226562 72.679688 " fill-opacity="1" fill-rule="nonzero"/><path fill="#ea223f" d="M 124.503906 217.070312 C 124.964844 218.808594 124.542969 230.199219 124.527344 232.78125 L 124.558594 263.515625 C 119.347656 263.710938 113.132812 263.535156 107.847656 263.523438 C 107.679688 262.183594 109.054688 257.246094 109.425781 255.71875 C 112.238281 244.117188 117.277344 226.582031 124.503906 217.070312 Z M 124.503906 217.070312 " fill-opacity="1" fill-rule="nonzero"/><path fill="#ea223f" d="M 186.539062 107.277344 L 187.109375 107.28125 C 188.265625 107.296875 188.621094 107.328125 189.351562 108.074219 C 189.609375 111.664062 192.65625 110.773438 195.570312 112.777344 C 196.429688 114.09375 198.039062 116.515625 196.929688 117.917969 C 190.222656 119.726562 193.292969 117.046875 189.792969 115.230469 L 189.34375 115.398438 C 189.085938 116.746094 189.304688 120.722656 189.351562 122.289062 C 191.734375 123.160156 194.867188 124.121094 196.644531 125.925781 C 200.265625 129.597656 197.960938 137.140625 193.710938 139.378906 C 192.582031 139.972656 189.808594 140.0625 188.882812 140.859375 L 189.488281 143.035156 L 188.113281 144.644531 C 186.460938 143.78125 186.636719 142.863281 186.921875 141.28125 L 186.988281 140.921875 C 184.582031 139.441406 183.210938 140.140625 180.933594 138.882812 C 178.90625 137.65625 178.058594 134.945312 177.449219 132.8125 C 177.113281 131.640625 180.222656 131.105469 180.921875 131.089844 C 184.699219 131.003906 181.992188 135.132812 186.800781 134.945312 C 187.109375 133.457031 186.929688 129.101562 186.902344 127.367188 C 180.601562 124.917969 174.089844 119.804688 180.953125 112.734375 C 182.070312 111.585938 184.332031 111.207031 185.914062 110.273438 C 186.550781 109.40625 186.472656 108.378906 186.539062 107.277344 Z M 191.992188 134.246094 C 193.863281 131.21875 192.542969 128.976562 189.191406 128.585938 C 189.175781 130.359375 188.949219 133.273438 189.46875 134.84375 C 190.550781 135.671875 191.007812 135.027344 191.992188 134.246094 Z M 191.992188 134.246094 " fill-opacity="1" fill-rule="nonzero"/><path fill="#000000" d="M 132.175781 147.527344 C 133.15625 148.203125 134.425781 149.539062 135.277344 150.382812 C 140.300781 155.347656 145.753906 159.816406 150.890625 164.664062 C 147.457031 166.96875 141.089844 173.171875 138.023438 176.167969 C 135.875 178.246094 133.773438 180.703125 131.769531 182.945312 C 131.433594 176.683594 131.738281 167.75 131.785156 161.28125 C 133.605469 161.203125 135.667969 161.234375 137.507812 161.21875 C 135.789062 157.40625 132.980469 153.410156 131.792969 149.3125 C 131.503906 148.3125 131.730469 148.183594 132.175781 147.527344 Z M 132.175781 147.527344 " fill-opacity="1" fill-rule="nonzero"/><path fill="#ea223f" d="M 182.496094 164.492188 C 180.195312 164.589844 177.667969 159.339844 178.015625 156.9375 C 178.636719 156.371094 178.566406 156.503906 179.023438 155.828125 L 178.078125 154.902344 C 177.675781 153.765625 178.015625 148.941406 178.273438 147.636719 C 179.328125 146.210938 184.625 145.042969 186.015625 146.070312 C 183.261719 146.308594 180.886719 146.125 178.769531 147.921875 C 178.285156 149.007812 178.292969 148.945312 178.355469 150.128906 C 180.140625 153.898438 192.710938 153.371094 196.09375 151.71875 C 197.117188 151.222656 197.339844 150.582031 197.738281 149.65625 C 197.046875 153.078125 198.976562 156.6875 197.757812 160.039062 C 197.417969 160.34375 197.078125 160.648438 196.738281 160.953125 C 195.234375 163.132812 196.1875 163.050781 193.6875 164.5 L 193.332031 164.496094 C 193.464844 164.242188 195.425781 162.347656 195.90625 161.8125 C 191.96875 162.789062 188.765625 163.519531 184.742188 162.753906 C 183.769531 162.570312 181.117188 161.777344 180.371094 162.117188 C 180.679688 163.164062 181.769531 163.394531 182.496094 164.492188 Z M 182.496094 164.492188 " fill-opacity="0.208" fill-rule="nonzero"/><path fill="#ea223f" d="M 197.011719 156.332031 C 197.515625 156.972656 197.75 157.757812 197.527344 158.535156 C 196.035156 163.757812 182.074219 161.066406 179.203125 160.347656 C 176.066406 154.984375 182.1875 157.667969 184.703125 158.101562 C 189.472656 158.921875 192.640625 158.386719 197.011719 156.332031 Z M 197.011719 156.332031 " fill-opacity="1" fill-rule="nonzero"/><path fill="#ea223f" d="M 178.511719 152.40625 C 181.796875 153.324219 185.210938 154.449219 188.632812 154.480469 C 190.507812 154.496094 195.726562 152.546875 197.09375 152.847656 C 197.535156 153.679688 197.386719 154.507812 197.355469 155.480469 C 194.867188 156.441406 190.902344 157.195312 188.183594 157.101562 C 185.632812 157.019531 180.519531 156.742188 178.738281 154.679688 C 178.199219 154.058594 178.40625 153.179688 178.511719 152.40625 Z M 178.511719 152.40625 " fill-opacity="1" fill-rule="nonzero"/><path fill="#ea223f" d="M 106.625 158.769531 C 104.976562 158.78125 100.152344 159.101562 99.085938 158.203125 C 99.152344 157.242188 114.496094 128.023438 115.640625 126.625 L 116.078125 126.679688 C 118.007812 128.878906 131.304688 154.96875 132.625 158.539062 C 130.167969 158.664062 127.183594 158.605469 124.6875 158.621094 L 124.742188 180.0625 C 124.746094 182.203125 125.066406 191.242188 124.121094 192.515625 C 123.996094 191.546875 124.160156 182.101562 124.203125 180.550781 C 124.394531 173.410156 123.925781 165.832031 124.144531 158.804688 C 125.65625 157.167969 129.484375 158.707031 131.320312 157.71875 C 131.460938 156.28125 117.75 130.457031 115.96875 127.046875 C 114.195312 129.457031 111.660156 134.769531 110.191406 137.644531 L 101.324219 155.046875 C 100.757812 156.171875 100.1875 156.59375 99.800781 157.933594 C 100.648438 158.476562 105.050781 157.972656 106.976562 158.546875 C 107.464844 161.382812 107.113281 176.300781 107.113281 179.984375 L 107.191406 218.257812 C 107.210938 224.921875 107.035156 232.960938 107.335938 239.539062 C 107.636719 237.558594 108.257812 234.101562 108.316406 232.210938 C 108.710938 230.976562 108.726562 230.507812 108.867188 229.195312 C 109.621094 227.480469 109.847656 223.261719 111.058594 221.648438 C 111.132812 222.269531 109.6875 228.871094 109.367188 229.949219 C 107.679688 235.65625 108.4375 242.984375 106.855469 248.425781 C 106.15625 243.910156 106.792969 230.398438 106.761719 224.953125 Z M 106.625 158.769531 " fill-opacity="0.522" fill-rule="nonzero"/><path fill="#ea223f" d="M 168.128906 131.917969 C 168.765625 132.082031 168.707031 132.074219 169.300781 132.335938 C 169.324219 132.421875 169.453125 133.152344 169.507812 133.234375 C 170.507812 134.652344 175.050781 135.648438 172.839844 138.46875 C 171.917969 138.695312 170.460938 138.003906 169.351562 137.6875 L 168.902344 137.964844 C 168.921875 140.023438 170.3125 140.628906 171.640625 141.757812 C 175.992188 145.449219 175.507812 148.449219 169.898438 149.84375 C 169.207031 150.019531 168.945312 151.113281 168.671875 151.757812 L 168.144531 151.949219 L 167.566406 151.59375 C 167.578125 150.824219 167.621094 151.082031 167.398438 150.34375 C 166.1875 149.910156 164.785156 149.386719 163.757812 148.617188 C 162.683594 147.8125 162.328125 145.628906 163.25 144.632812 C 165.089844 144.949219 165.839844 147.328125 167.566406 146.757812 C 168.125 145.710938 167.820312 144.546875 167.6875 143.292969 C 164.417969 140.710938 160.054688 139.355469 165.507812 134.753906 C 167.179688 133.34375 166.867188 133.566406 168.128906 131.917969 Z M 168.128906 131.917969 " fill-opacity="1" fill-rule="nonzero"/><path fill="#ea223f" d="M 206.652344 129.0625 C 207.28125 129.234375 207.238281 129.210938 207.703125 129.667969 C 207.527344 132.28125 208.71875 131.125 210.269531 132.09375 C 211.296875 132.734375 211.910156 134.429688 211.179688 135.617188 C 208.921875 136.363281 209.636719 134.828125 208.015625 134.28125 C 207.59375 135.078125 207.746094 136.566406 207.742188 137.589844 C 208.40625 137.941406 209.0625 138.3125 209.710938 138.695312 C 211.714844 139.90625 213.738281 142.789062 212.195312 145.199219 C 210.75 147.457031 209.890625 146.457031 208.242188 147.414062 C 208.253906 148.433594 208.402344 148.605469 207.953125 149.410156 L 207.382812 149.34375 L 206.511719 148.121094 L 206.417969 147.609375 C 205.351562 146.984375 204.46875 147.359375 203.554688 146.535156 C 202.207031 145.328125 201.761719 144.28125 201.621094 142.503906 C 203.175781 141.085938 204.96875 143.996094 206.328125 144.863281 L 206.519531 144.632812 C 206.441406 144.1875 205.960938 140.992188 205.96875 141.007812 C 204.304688 138.257812 200.417969 138.429688 202.113281 134.214844 C 203.335938 131.1875 204.320312 132.667969 205.757812 131.085938 C 205.890625 129.929688 205.90625 129.992188 206.652344 129.0625 Z M 206.652344 129.0625 " fill-opacity="1" fill-rule="nonzero"/><path fill="#ea223f" d="M 186.015625 146.070312 C 189.738281 146.195312 194.367188 146.011719 197.671875 147.636719 C 197.785156 148.5625 197.824219 148.699219 197.738281 149.65625 C 197.339844 150.582031 197.117188 151.222656 196.09375 151.71875 C 192.710938 153.371094 180.140625 153.898438 178.355469 150.128906 C 178.292969 148.945312 178.285156 149.007812 178.769531 147.921875 C 180.886719 146.125 183.261719 146.308594 186.015625 146.070312 Z M 186.015625 146.070312 " fill-opacity="1" fill-rule="nonzero"/><path fill="#ea223f" d="M 197.671875 147.636719 C 197.785156 148.5625 197.824219 148.699219 197.738281 149.65625 C 197.339844 150.582031 197.117188 151.222656 196.09375 151.71875 C 192.710938 153.371094 180.140625 153.898438 178.355469 150.128906 C 178.292969 148.945312 178.285156 149.007812 178.769531 147.921875 C 180.863281 150.84375 195.289062 150.949219 197.671875 147.636719 Z M 197.671875 147.636719 " fill-opacity="1" fill-rule="nonzero"/><path fill="#ea223f" d="M 182.496094 164.492188 C 181.769531 163.394531 180.679688 163.164062 180.371094 162.117188 C 181.117188 161.777344 183.769531 162.570312 184.742188 162.753906 C 188.765625 163.519531 191.96875 162.789062 195.90625 161.8125 C 195.425781 162.347656 193.464844 164.242188 193.332031 164.496094 C 190.007812 167.351562 185.945312 166.789062 182.496094 164.492188 Z M 182.496094 164.492188 " fill-opacity="1" fill-rule="nonzero"/><path fill="#ea223f" d="M 106.976562 158.546875 C 107.761719 159.585938 107.433594 173.65625 107.429688 175.816406 C 107.367188 192.570312 107.402344 209.324219 107.523438 226.078125 C 107.484375 227.585938 107.171875 233.167969 107.703125 234.144531 C 108.078125 233.285156 108.105469 233.097656 108.316406 232.210938 C 108.257812 234.101562 107.636719 237.558594 107.335938 239.539062 C 107.035156 232.960938 107.210938 224.921875 107.191406 218.257812 L 107.113281 179.984375 C 107.113281 176.300781 107.464844 161.382812 106.976562 158.546875 Z M 106.976562 158.546875 " fill-opacity="0.725" fill-rule="nonzero"/><path fill="#ea223f" d="M 107.523438 226.078125 C 107.621094 227.25 107.617188 229.816406 108.113281 230.550781 C 108.363281 230.105469 108.632812 229.644531 108.867188 229.195312 C 108.726562 230.507812 108.710938 230.976562 108.316406 232.210938 C 108.105469 233.097656 108.078125 233.285156 107.703125 234.144531 C 107.171875 233.167969 107.484375 227.585938 107.523438 226.078125 Z M 107.523438 226.078125 " fill-opacity="0.918" fill-rule="nonzero"/></svg>