<?xml version="1.0" encoding="utf-8" ?><svg xmlns="http://www.w3.org/2000/svg" xmlns:xlink="http://www.w3.org/1999/xlink" width="1000" height="1000" viewBox="0 0 1000 1000"><path fill="white" d="M0 0L1000 0L1000 1000L0 1000L0 0Z"/>
<defs><linearGradient id="gradient_0" gradientUnits="userSpaceOnUse" x1="169.38635" y1="731.42578" x2="502.83221" y2="323.81747"><stop offset="0" stop-color="#3613AE"/><stop offset="1" stop-color="#825EEC"/></linearGradient></defs><path fill="url(#gradient_0)" d="M539.107 133.688C548.342 133.004 559.775 133.286 569.164 133.296L616.391 133.36L649.586 133.377C657.078 133.382 671.04 132.009 676.72 136.913C685.213 144.247 685.256 150.348 680.075 159.484C674.698 169.65 668.464 178.587 662.356 188.129C653.741 201.492 645.423 215.044 637.41 228.777C634.829 233.208 629.424 242.007 628.201 246.709C638.861 249.046 636.882 248.515 640.777 257.674C646.948 258.212 653.165 257.926 659.347 257.611L661.225 252.154C664.127 250.099 665.29 249.465 668.501 247.902C673.923 253.429 675.996 254.126 682.877 257.486C681.695 263.362 680.68 269.27 679.834 275.203L688.362 284.593C692.757 290.463 696.259 286.394 701.43 285.25C708.8 292.685 706.169 297.191 706.19 306.657C699.986 308.364 693.293 309.604 689.888 315.825C687.735 319.761 688.351 323.656 689.518 327.841C690.322 330.724 695.112 336.427 694.108 338.678C692.905 341.372 687.976 342.798 686.516 345.888C685.788 347.432 684.599 349.506 683.199 350.512C678.471 351.527 675.129 343.698 664.71 345.067C654.864 349.774 653.057 352.43 649.382 362.8C640.77 363.225 633.273 362.692 626.115 357.1C626.054 354.093 626.009 351.086 625.979 348.079C623.21 344.45 621.276 342.667 616.893 340.901C610.131 347.756 604.097 360.708 596.039 367.627C594.148 369.251 586.732 377.492 586.124 379.532C587.248 380.193 587.303 380.136 588.601 380.41C595.583 379.959 656.154 379.845 658.432 380.768L658.629 381.552C656.455 384.376 653.145 385.548 650.375 387.703C624.488 407.833 596.361 425.842 569.557 444.761L534.687 469.53C529.907 472.975 523.385 478.282 518.679 481.243C507.07 492.216 501.475 496.629 499.605 512.651C500.429 530.603 505.718 542.232 518.92 555.108C529.181 565.116 540.661 567.51 552.184 573.055C548.87 578.225 541.771 586.062 537.603 591.015L516.861 615.989C513.72 619.738 508.117 625.884 505.765 629.755C504.061 632.444 503.671 632.882 501.448 635.093C496.253 639.365 487.253 650.727 482.745 656.233L456.01 688.817C413.336 740.315 371.647 793.213 328.333 844.198C324.91 848.245 322.095 852.515 318.334 856.82C319.803 850.232 321.999 843.956 323.951 837.495L336.795 796.19L357.42 728.072C364.307 705.932 370.895 686.975 377.332 664.242C375.027 659.992 377.262 659.929 371.664 658.847C373.468 652.226 373.724 648.025 371.184 641.579C370.518 639.156 369.23 638.984 367.069 638.328C365.154 637.473 364.456 636.799 362.78 635.484C362.171 635.236 360.796 634.161 360.186 633.72C356.519 630.164 355.432 627.855 353.251 623.377C355.452 620.2 356.861 618.894 359.653 616.406L361.103 614.386C356.076 604.253 354.774 601.654 344.433 596.157C341.501 597.372 336.197 600.937 333.096 602.771L327.777 604.35C326.406 602.424 325.048 599.205 323.773 598.627C324.07 598.41 324.537 597.886 324.814 597.6C324.376 593.024 316.214 580.135 313.688 572.671C309.347 559.842 307.981 545.1 303.343 532.757C303.111 532.139 302.147 532.219 301.261 532.09L301.194 531.674C290.794 529.748 293.369 532.031 281.577 526.345C277.75 521.915 272.356 514.978 272.599 508.883C272.927 503.481 274.069 497.685 275.547 492.474C280.222 475.993 284.312 459.405 288.46 442.786C289.053 439.8 289.863 436.87 290.635 433.925C291.911 430.815 293.476 423.655 294.321 420.107C296.489 411.045 298.561 401.96 300.538 392.853C301.708 389.544 302.66 384.932 303.487 381.417C308.274 359.126 314.704 336.221 320.122 314.012L322.639 304.603C326.606 291.748 329.2 277.386 332.387 264.242C338.206 240.718 344.173 217.231 350.288 193.782C350.896 189.798 353.597 180.268 354.653 175.979C357.762 164.136 358.212 150.501 367.193 141.19C375.382 132.701 386.353 133.69 397.004 133.629L425.92 133.608C463.648 133.193 501.38 133.22 539.107 133.688Z"/>
<path fill="#16C9F3" d="M539.107 133.688C548.342 133.004 559.775 133.286 569.164 133.296L616.391 133.36L649.586 133.377C657.078 133.382 671.04 132.009 676.72 136.913C685.213 144.247 685.256 150.348 680.075 159.484C674.698 169.65 668.464 178.587 662.356 188.129C653.741 201.492 645.423 215.044 637.41 228.777C634.829 233.208 629.424 242.007 628.201 246.709C638.861 249.046 636.882 248.515 640.777 257.674C646.948 258.212 653.165 257.926 659.347 257.611L661.225 252.154C664.127 250.099 665.29 249.465 668.501 247.902C673.923 253.429 675.996 254.126 682.877 257.486C681.695 263.362 680.68 269.27 679.834 275.203L688.362 284.593C692.757 290.463 696.259 286.394 701.43 285.25C708.8 292.685 706.169 297.191 706.19 306.657C699.986 308.364 693.293 309.604 689.888 315.825C687.735 319.761 688.351 323.656 689.518 327.841C690.322 330.724 695.112 336.427 694.108 338.678C692.905 341.372 687.976 342.798 686.516 345.888C685.788 347.432 684.599 349.506 683.199 350.512C678.471 351.527 675.129 343.698 664.71 345.067C654.864 349.774 653.057 352.43 649.382 362.8C640.77 363.225 633.273 362.692 626.115 357.1C626.054 354.093 626.009 351.086 625.979 348.079C623.21 344.45 621.276 342.667 616.893 340.901C610.131 347.756 604.097 360.708 596.039 367.627C594.148 369.251 586.732 377.492 586.124 379.532C587.248 380.193 587.303 380.136 588.601 380.41C584.625 380.745 574.403 380.647 570.409 380.408C563.178 380.069 554.693 381.04 547.328 380.331C545.412 380.146 545.733 380.184 544.785 378.955L545.01 378.502C541.586 377.939 524.924 378.65 520.207 378.696C499.714 378.965 479.217 378.729 458.736 377.988C456.104 377.916 448.703 378.356 447.114 377.213C445.998 371.911 452.943 356.836 455.098 351.209L467.319 318.543C469.402 313.032 472.077 306.833 473.913 301.337C477.98 293.441 482.238 281.78 485.397 273.435C488.879 264.493 492.429 255.577 496.046 246.689L520.804 186.085C524.921 175.973 539.667 142.802 539.107 133.688Z"/><path fill="#9169F6" d="M628.201 246.709C638.861 249.046 636.882 248.515 640.777 257.674C646.948 258.212 653.165 257.926 659.347 257.611L661.225 252.154C664.127 250.099 665.29 249.465 668.501 247.902C673.923 253.429 675.996 254.126 682.877 257.486C681.695 263.362 680.68 269.27 679.834 275.203L688.362 284.593C692.757 290.463 696.259 286.394 701.43 285.25C708.8 292.685 706.169 297.191 706.19 306.657C699.986 308.364 693.293 309.604 689.888 315.825C687.735 319.761 688.351 323.656 689.518 327.841C690.322 330.724 695.112 336.427 694.108 338.678C692.905 341.372 687.976 342.798 686.516 345.888C685.788 347.432 684.599 349.506 683.199 350.512C678.471 351.527 675.129 343.698 664.71 345.067C654.864 349.774 653.057 352.43 649.382 362.8C640.77 363.225 633.273 362.692 626.115 357.1C626.054 354.093 626.009 351.086 625.979 348.079C623.21 344.45 621.276 342.667 616.893 340.901C610.131 347.756 604.097 360.708 596.039 367.627C594.148 369.251 586.732 377.492 586.124 379.532C587.248 380.193 587.303 380.136 588.601 380.41C584.625 380.745 574.403 380.647 570.409 380.408C563.178 380.069 554.693 381.04 547.328 380.331C545.412 380.146 545.733 380.184 544.785 378.955L545.01 378.502C548.377 374.262 552.734 367.059 555.654 362.409C566.134 345.717 575.4 328.176 585.906 311.486C587.234 309.376 588.453 307.236 590.801 306.734C591.361 306.292 608.422 278.171 612.549 273.01L614.506 271.896C617.162 268.511 619.571 263.262 621.493 259.307C624.292 255.761 626.395 250.83 628.201 246.709Z"/><defs><linearGradient id="gradient_1" gradientUnits="userSpaceOnUse" x1="689.89001" y1="267.36417" x2="643.23962" y2="310.03891"><stop offset="0" stop-color="#5432AF"/><stop offset="1" stop-color="#825FDE"/></linearGradient></defs><path fill="url(#gradient_1)" d="M628.201 246.709C638.861 249.046 636.882 248.515 640.777 257.674C646.948 258.212 653.165 257.926 659.347 257.611L661.225 252.154C664.127 250.099 665.29 249.465 668.501 247.902C673.923 253.429 675.996 254.126 682.877 257.486C681.695 263.362 680.68 269.27 679.834 275.203L688.362 284.593C692.757 290.463 696.259 286.394 701.43 285.25C708.8 292.685 706.169 297.191 706.19 306.657C699.986 308.364 693.293 309.604 689.888 315.825C687.735 319.761 688.351 323.656 689.518 327.841C690.322 330.724 695.112 336.427 694.108 338.678C692.905 341.372 687.976 342.798 686.516 345.888C685.788 347.432 684.599 349.506 683.199 350.512C678.471 351.527 675.129 343.698 664.71 345.067L664.79 344.483C668.862 342.65 673.394 345.196 677.155 346.872C683.793 337.36 679.682 333.564 671.654 328.364C670.947 327.906 668.712 325.531 667.888 324.776C664.279 325.334 663.219 329.908 659.612 328.538C646.703 335.5 630.609 331.307 622.739 318.931C614.87 306.555 617.898 290.202 629.679 281.465L629.442 281.077C629.879 279.778 630.298 279.915 631.813 278.974C631.992 275.19 624.28 264.967 620.051 264.723C618.721 266.899 617.046 270.485 615.432 272.058L614.506 271.896C617.162 268.511 619.571 263.262 621.493 259.307C624.292 255.761 626.395 250.83 628.201 246.709Z"/><path fill="white" d="M629.679 281.465C638.088 275.229 649.277 274.212 658.673 278.831C668.068 283.45 674.097 292.93 674.295 303.398C674.492 313.866 668.826 323.567 659.612 328.538C646.703 335.5 630.609 331.307 622.739 318.931C614.87 306.555 617.898 290.202 629.679 281.465Z"/><path fill="white" d="M545.01 378.502C548.377 374.262 552.734 367.059 555.654 362.409C566.134 345.717 575.4 328.176 585.906 311.486C587.234 309.376 588.453 307.236 590.801 306.734C593.888 310.024 602.121 312.084 601.011 317.275C598.022 331.242 581.636 334.152 604.989 344.018C602.834 348.03 574.577 377.363 570.409 380.408C563.178 380.069 554.693 381.04 547.328 380.331C545.412 380.146 545.733 380.184 544.785 378.955L545.01 378.502Z"/><path fill="white" d="M612.549 273.01C611.987 267.042 615.18 260.454 621.493 259.307C619.571 263.262 617.162 268.511 614.506 271.896L612.549 273.01Z"/><path fill="#9169F6" d="M350.288 193.782C350.896 189.798 353.597 180.268 354.653 175.979C357.762 164.136 358.212 150.501 367.193 141.19C375.382 132.701 386.353 133.69 397.004 133.629L425.92 133.608C463.648 133.193 501.38 133.22 539.107 133.688C539.667 142.802 524.921 175.973 520.804 186.085L496.046 246.689C492.429 255.577 488.879 264.493 485.397 273.435C482.238 281.78 477.98 293.441 473.913 301.337C471.319 301.896 472.007 306.402 470.08 307.447L469.602 306.57L468.841 306.645C468.587 307.164 467.79 308.941 467.305 309.048C465.843 309.369 461.789 309.576 460.447 309.113C458.822 309.59 459.619 310.977 457.517 312.803C456.618 312.145 456.205 311.932 455.216 311.405L453.83 312.014C452.121 311.311 451.551 309.804 450.146 308.579C449.279 310.028 449.25 310.522 447.934 311.358C445.295 310.347 441.753 307.029 439.64 305.052C440.074 296.953 432.701 301.176 435.605 288.547C434.234 285.347 431.827 279.063 429.737 276.71C427.908 274.65 426.26 273.458 424.923 270.817C425.054 266.12 422.005 257.38 418.407 254.643C411.681 249.527 403.977 246.934 397.697 240.997C395.042 240.814 393.335 242.184 390.713 242.476C389.695 242.589 388.592 241.193 387.447 240.259C386.437 241.495 382.557 246.502 381.439 245.892C377.183 243.572 377.571 244.44 372.798 245.126L371.957 244.164L371.575 244.376C368.634 242.617 367.983 242.36 366.732 239.026C363.125 237.801 360.725 238.737 361.821 233.35L361.966 232.667C360.064 230.16 358.351 229.92 356.86 228.053C356.589 224.315 357.065 224.689 353.892 223.34C351.59 221.163 353.882 216.051 350.436 213.764C345.637 210.579 351.867 197.881 350.288 193.782Z"/><defs><linearGradient id="gradient_2" gradientUnits="userSpaceOnUse" x1="315.37802" y1="686.79529" x2="559.42633" y2="661.55597"><stop offset="0" stop-color="#6C50E1"/><stop offset="1" stop-color="#9B65FC"/></linearGradient></defs><path fill="url(#gradient_2)" d="M499.605 512.651C500.429 530.603 505.718 542.232 518.92 555.108C529.181 565.116 540.661 567.51 552.184 573.055C548.87 578.225 541.771 586.062 537.603 591.015L516.861 615.989C513.72 619.738 508.117 625.884 505.765 629.755C504.061 632.444 503.671 632.882 501.448 635.093C496.253 639.365 487.253 650.727 482.745 656.233L456.01 688.817C413.336 740.315 371.647 793.213 328.333 844.198C328.57 841.344 328.473 839.03 329.826 836.343C334.67 826.728 340.451 817.481 345.184 807.811C349.846 798.116 353.356 787.785 357.904 778.055C359.728 774.154 362.593 769.909 364.679 766.034C368.494 758.947 372.36 751.891 376.155 744.791L439.724 626.544C457.972 592.116 474.856 556.922 493.551 522.785C495.021 520.101 497.626 514.478 499.605 512.651Z"/><path fill="#9169F6" d="M518.679 481.243L518.559 480.463L518.093 480.701L517.592 480.517C516.824 477.784 516.509 475.77 515.904 473.21C512.812 460.129 499.832 448.152 486.317 446.466C484.329 446.218 476.052 445.918 475.097 445.307C477.348 445.334 479.703 445.555 481.793 444.869C482.133 442.352 478.33 439.893 479.187 435.566C480.251 430.195 477.619 428.538 476.284 423.86C475.584 421.406 475.903 418.087 475.519 415.463C474.902 411.244 473.072 406.324 473.283 402.11C473.378 400.219 475.381 398.832 476.733 397.699C479.195 395.636 481.884 393.277 484.83 391.937C488.79 390.136 503.273 387.01 505.274 385.248C506.222 384.414 506.945 383.606 508.203 383.247C513.059 381.863 531.76 384.394 535.641 381.353C535.754 381.264 535.857 381.164 535.965 381.07C537.633 381.093 537.1 380.99 538.318 382.369C540.905 381.609 543.839 381.443 544.785 378.955C545.733 380.184 545.412 380.146 547.328 380.331C554.693 381.04 563.178 380.069 570.409 380.408C574.403 380.647 584.625 380.745 588.601 380.41C595.583 379.959 656.154 379.845 658.432 380.768L658.629 381.552C656.455 384.376 653.145 385.548 650.375 387.703C624.488 407.833 596.361 425.842 569.557 444.761L534.687 469.53C529.907 472.975 523.385 478.282 518.679 481.243Z"/><path fill="white" d="M301.194 531.674C310.33 531.172 335.145 530.628 343.876 531.371C364 532.01 384.303 531.456 404.445 531.509C408.065 531.519 411.636 531.528 415.252 531.801C414.743 539.368 404.087 576.337 400.508 581.513C395.525 588.786 368.428 612.357 361.103 614.386C356.076 604.253 354.774 601.654 344.433 596.157C341.501 597.372 336.197 600.937 333.096 602.771L327.777 604.35C326.406 602.424 325.048 599.205 323.773 598.627C324.07 598.41 324.537 597.886 324.814 597.6C324.376 593.024 316.214 580.135 313.688 572.671C309.347 559.842 307.981 545.1 303.343 532.757C303.111 532.139 302.147 532.219 301.261 532.09L301.194 531.674Z"/><defs><linearGradient id="gradient_3" gradientUnits="userSpaceOnUse" x1="325.24869" y1="566.1424" x2="311.07526" y2="568.66107"><stop offset="0" stop-color="#9E7CF1"/><stop offset="1" stop-color="#BEA2F8"/></linearGradient></defs><path fill="url(#gradient_3)" d="M301.194 531.674C310.33 531.172 335.145 530.628 343.876 531.371C333.183 531.826 322.301 531.286 311.791 531.728C313.814 549.125 321.458 569.933 327.541 586.378C329.63 592.025 331.369 596.992 333.096 602.771L327.777 604.35C326.406 602.424 325.048 599.205 323.773 598.627C324.07 598.41 324.537 597.886 324.814 597.6C324.376 593.024 316.214 580.135 313.688 572.671C309.347 559.842 307.981 545.1 303.343 532.757C303.111 532.139 302.147 532.219 301.261 532.09L301.194 531.674Z"/><path fill="#B9A0EF" d="M361.103 614.386C368.428 612.357 395.525 588.786 400.508 581.513C401.231 585.702 398.484 597.6 396.243 600.772C395.022 604.525 393.447 609.874 391.641 613.216C387.497 619.524 385.104 622.47 382.207 629.418C380.694 629.094 380.323 628.613 379.145 627.624C377.423 627.38 376.482 627.922 374.845 628.533L372.4 629.122C370.647 629.944 367.769 629.339 365.462 629.202C363.993 630.469 361.662 632.62 360.186 633.72C356.519 630.164 355.432 627.855 353.251 623.377C355.452 620.2 356.861 618.894 359.653 616.406L361.103 614.386Z"/><path fill="white" d="M377.361 615.857C382.884 612.287 392.335 601.304 396.243 600.772C395.022 604.525 393.447 609.874 391.641 613.216C387.497 619.524 385.104 622.47 382.207 629.418C380.694 629.094 380.323 628.613 379.145 627.624C377.423 627.38 376.482 627.922 374.845 628.533L372.4 629.122C369.737 628.917 366.002 628.806 365.452 625.664C366.764 622.518 374.18 618.628 377.361 615.857Z"/><path fill="#CAB5F7" d="M359.653 616.406L359.875 617.277C358.926 618.361 358.133 619.277 357.25 620.43C363.864 625.803 372.054 617.079 377.361 615.857C374.18 618.628 366.764 622.518 365.452 625.664C366.002 628.806 369.737 628.917 372.4 629.122C370.647 629.944 367.769 629.339 365.462 629.202C363.993 630.469 361.662 632.62 360.186 633.72C356.519 630.164 355.432 627.855 353.251 623.377C355.452 620.2 356.861 618.894 359.653 616.406Z"/>
<path fill="#B9A0EF" d="M391.641 613.216C392.672 619.271 384.547 640.335 382.278 648.029C380.687 653.516 379.158 658.823 377.332 664.242C375.027 659.992 377.262 659.929 371.664 658.847C373.468 652.226 373.724 648.025 371.184 641.579C370.518 639.156 369.23 638.984 367.069 638.328C365.154 637.473 364.456 636.799 362.78 635.484C362.171 635.236 360.796 634.161 360.186 633.72C361.662 632.62 363.993 630.469 365.462 629.202C367.769 629.339 370.647 629.944 372.4 629.122L374.845 628.533C376.482 627.922 377.423 627.38 379.145 627.624C380.323 628.613 380.694 629.094 382.207 629.418C385.104 622.47 387.497 619.524 391.641 613.216Z"/><path fill="#CCC6F4" d="M378.975 634.562C380.39 638.554 382.337 643.781 382.278 648.029C380.687 653.516 379.158 658.823 377.332 664.242C375.027 659.992 377.262 659.929 371.664 658.847C373.468 652.226 373.724 648.025 371.184 641.579C373.615 638.022 375.467 636.858 378.975 634.562Z"/><path fill="#CCC6F4" d="M374.845 628.533C372.571 631.454 368.901 634.28 365.658 636.084C364.334 635.952 364.069 635.86 362.78 635.484C362.171 635.236 360.796 634.161 360.186 633.72C361.662 632.62 363.993 630.469 365.462 629.202C367.769 629.339 370.647 629.944 372.4 629.122L374.845 628.533Z"/><defs><linearGradient id="gradient_4" gradientUnits="userSpaceOnUse" x1="534.34491" y1="797.04523" x2="720.44922" y2="441.99167"><stop offset="0" stop-color="#503EC9"/><stop offset="1" stop-color="#0DC4ED"/></linearGradient></defs><path fill="url(#gradient_4)" d="M650.448 416.78C657.683 411.012 666.83 404.901 674.612 398.897C686.472 390.321 697.759 380.02 710.677 373.085C714.876 370.83 721.687 369.393 726.303 370.134C749.355 373.832 749.878 400.394 754.404 418.224C757.507 430.446 760.334 442.354 763.218 454.414C767.297 471.396 771.192 488.422 774.902 505.489C776.162 511.195 779.466 524.835 779.954 529.966C783.177 540.072 785.885 555.815 787.974 566.591C791.899 586.836 804.266 615.766 776.876 625.154C757.363 631.364 733.746 612.29 714.015 608.575C708.906 619.55 704.86 631.156 699.626 642.072C679.863 683.29 660.662 725.228 634.448 762.854C631.992 766.379 629.323 770.246 627.071 773.86L623.321 778.949C613.742 790.488 595.26 812.014 582.443 820.029C581.489 820.825 580.541 821.509 579.558 822.237C533.199 856.618 474.022 866.068 417.6 865.341C398.076 865.09 378.6 865.515 359.321 861.955C354.791 861.119 350.097 860.485 345.53 859.772C348.291 854.903 359.959 841.504 363.991 836.736C374.041 825.074 383.809 813.172 393.286 801.04C395.397 798.353 409.278 780.031 410.319 779.727C431.376 773.561 450.193 768.226 467.776 754.152C473.708 749.403 478.957 743.924 484.382 739.68C486.895 736.356 492.361 731.057 495.36 727.737C502.077 720.298 509.383 712.38 515.117 704.106C535.483 674.72 551.445 640.672 566.52 608.336C573.745 592.838 580.903 577.145 587.108 561.343C573.486 556.856 533.351 544.755 526.455 531.612C513.712 507.325 539.794 492.411 556.71 481.067L588.659 459.349L631.495 429.748C636.501 426.308 645.493 419.6 650.448 416.78Z"/><path fill="#583DCD" d="M484.382 739.68C487.401 738.457 487.416 736.885 489.607 735.733C489.789 739.989 494.867 738.061 492.274 746.926C493.223 749.561 494.179 752.296 495.49 754.959C498.205 760.471 503.27 764.406 504.074 770.729C504.45 773.685 515.109 778.821 517.795 781.011C522.131 784.546 525.505 787.681 529.574 791.421C538.412 797.895 545.512 802.271 555.944 805.293C558.305 808.392 565.404 814.969 568.841 814.583C578.396 813.511 572.281 814.877 576.502 818.067L577.71 817.161C578.963 817.592 579.464 818.411 580.345 819.429C581.312 819.596 581.607 819.526 582.443 820.029C581.489 820.825 580.541 821.509 579.558 822.237C533.199 856.618 474.022 866.068 417.6 865.341C398.076 865.09 378.6 865.515 359.321 861.955C354.791 861.119 350.097 860.485 345.53 859.772C348.291 854.903 359.959 841.504 363.991 836.736C374.041 825.074 383.809 813.172 393.286 801.04C395.397 798.353 409.278 780.031 410.319 779.727C431.376 773.561 450.193 768.226 467.776 754.152C473.708 749.403 478.957 743.924 484.382 739.68Z"/>
<path fill="#16C9F3" d="M650.448 416.78C657.683 411.012 666.83 404.901 674.612 398.897C686.472 390.321 697.759 380.02 710.677 373.085C714.876 370.83 721.687 369.393 726.303 370.134C749.355 373.832 749.878 400.394 754.404 418.224C757.507 430.446 760.334 442.354 763.218 454.414C767.297 471.396 771.192 488.422 774.902 505.489C776.162 511.195 779.466 524.835 779.954 529.966C776.959 526.738 771.22 487.843 768.239 480.468C763.365 479.789 763.686 475.939 760.413 475.48C760.098 477.354 760.319 477.791 758.68 478.493C755.827 478.148 754.089 477.218 752.156 475.08C749.457 472.095 748.613 471.321 744.556 471.048C741.583 470.847 726.985 452.794 718.518 452.013L717.935 452.892C718.192 455.318 721.051 456.644 722.946 459.995L722.555 460.23C719.857 458.574 718.791 457.657 716.393 455.901C712.267 452.88 705.213 451.67 700.533 448.528C698.664 447.274 698.01 445.142 696.635 444.103C691.881 440.51 685.843 436.811 680.759 433.823C677.176 431.718 666.345 431.019 664.026 428.902C654.868 420.541 661.135 415.885 660.545 411.277C658.634 411.482 654.27 416.037 650.448 416.78Z"/><path fill="#B9A0EF" d="M253.003 226.809L252.72 226.683C238.74 220.576 237.714 201.361 250.899 194.924C254.745 193.067 259.2 192.938 263.148 194.568C267.644 196.352 271.221 199.887 273.059 204.361C277.118 214.206 270.26 224.34 261.089 228.175C260.839 247.818 262.565 275.546 267.471 294.724C279.687 296.04 288.359 297.145 300.507 300.002C304.852 301.025 318.915 304.394 322.639 304.603L320.122 314.012C314.704 336.221 308.274 359.126 303.487 381.417C302.66 384.932 301.708 389.544 300.538 392.853C298.561 401.96 296.489 411.045 294.321 420.107C293.476 423.655 291.911 430.815 290.635 433.925C289.863 436.87 289.053 439.8 288.46 442.786C284.312 459.405 280.222 475.993 275.547 492.474C274.069 497.685 272.927 503.481 272.599 508.883C272.356 514.978 277.75 521.915 281.577 526.345C293.369 532.031 290.794 529.748 301.194 531.674L301.261 532.09C286.552 538.286 241.831 539.216 225.119 539.025C222.341 544.668 220.051 548.585 214.002 551.417C201.434 557.299 188.347 547.144 190.62 533.503C191.029 531.05 192.835 527.492 193.887 525.114C174.709 510.25 178.724 490.374 187.571 470.905C179.353 466.457 169.497 461.808 163.536 454.723C153.223 453.598 142.926 454.017 132.315 452.739C133.688 449.47 133.635 447.635 133.754 444.178C141.969 444.784 154.537 443.176 163.86 443.415C165.744 445.675 166.884 448.461 168.87 450.682C174.585 457.073 184.642 460.252 192.487 463.704C205.391 449.567 216.074 434.657 231.984 423.237C235.596 420.645 240.097 417.172 243.352 414.164L243.797 413.746C240.55 410.754 236.108 407.458 232.625 404.466C226.361 398.996 220.348 393.245 214.604 387.231C192.768 363.985 171.404 325.101 207.558 303.49C223.732 293.822 240.899 293.744 259.07 294.603C258.092 288.045 256.42 281.585 255.431 274.867C252.987 258.27 252.85 243.441 253.003 226.809Z"/><path fill="white" d="M250.99 419.754C262.145 427.591 273.997 433.579 285.936 440.079C287.472 440.915 287.741 441.313 288.46 442.786C284.312 459.405 280.222 475.993 275.547 492.474C274.069 497.685 272.927 503.481 272.599 508.883C272.356 514.978 277.75 521.915 281.577 526.345C281.35 527.262 281.372 527.036 280.825 527.871C274.268 530.348 233.629 529.734 224.642 529.639C221.427 524.767 215.345 519.846 209.632 518.388C204.506 517.08 202.596 518.204 198.515 520.659C192.118 512.785 185.207 502.971 188.216 492.33C196.061 464.589 227.121 434.895 250.99 419.754Z"/><path fill="white" d="M270.609 305.599C278.48 306.013 314.317 310.689 320.122 314.012C314.704 336.221 308.274 359.126 303.487 381.417L302.771 381.263C296.832 374.683 273.885 317.629 270.609 305.599Z"/><path fill="white" d="M258.854 415.213C267.247 406.714 287.527 396.687 298.788 391.527C299.355 391.267 300.143 392.437 300.538 392.853C298.561 401.96 296.489 411.045 294.321 420.107C293.476 423.655 291.911 430.815 290.635 433.925C285.919 432.19 264.314 418.639 258.854 415.213Z"/><path fill="white" d="M246.412 303.914C251.358 303.552 256.334 303.676 261.294 303.717C263.474 309.028 264.714 315.406 266.588 320.907C272.951 339.584 281.145 357.466 289.99 375.081C291.45 377.987 292.772 380.903 293.534 384.072C278.034 391.778 265.48 401.116 251.174 408.81L246.875 405.548L245.774 404.658C226.522 388.948 199.442 363.116 196.567 337.166C193.469 309.203 226.098 305.491 246.412 303.914Z"/><path fill="white" d="M257.082 201.72C268.722 202.366 270.14 215.597 258.295 219.475C246.501 218.651 243.783 204.982 257.082 201.72Z"/><path fill="white" d="M205.639 527.352C216.095 527.577 221.445 537.775 209.467 544.304C196.944 545.931 194.481 533.81 205.639 527.352Z"/><defs><linearGradient id="gradient_5" gradientUnits="userSpaceOnUse" x1="278.16101" y1="588.86279" x2="314.4584" y2="676.81891"><stop offset="0" stop-color="#542EC0"/><stop offset="1" stop-color="#946EFC"/></linearGradient></defs><path fill="url(#gradient_5)" d="M294.747 580.601C301.049 580.698 307.746 580.311 314.079 580.059C315.894 584.977 316.906 589.843 318.95 594.562C320.15 597.333 321.027 597.687 323.773 598.627C325.048 599.205 326.406 602.424 327.777 604.35L333.096 602.771C336.197 600.937 341.501 597.372 344.433 596.157C354.774 601.654 356.076 604.253 361.103 614.386L359.653 616.406C356.861 618.894 355.452 620.2 353.251 623.377C355.432 627.855 356.519 630.164 360.186 633.72C360.796 634.161 362.171 635.236 362.78 635.484C364.456 636.799 365.154 637.473 367.069 638.328C369.23 638.984 370.518 639.156 371.184 641.579C373.724 648.025 373.468 652.226 371.664 658.847C370.935 660.365 370.885 661.04 369.649 661.932C366.179 660.386 364.932 659.253 360.844 660.596C352.12 663.462 350.936 672.837 350.686 680.548C353.165 682.597 357.476 685.05 358.035 688.808C358.928 694.803 349.239 701.993 344.164 702.974C342.348 703.326 337.845 697.915 335.357 696.414C329.345 697.967 322.585 699.906 317.328 703.33C314.997 723.062 314.206 719.716 294.358 718.044C293.265 711.352 292.903 705.531 286.611 701.779C281.585 698.782 277.904 695.484 272.012 697.924C269.988 699.522 263.715 703.412 261.52 704.727C257.583 701.228 250.081 696.359 247.779 691.761C246.988 690.183 248.128 688.379 248.953 686.93C252.609 682.561 254.231 680.402 255.535 674.862C252.632 664.16 248.549 663.885 238.799 661.223C233.943 658.367 233.615 642.957 236.774 638.685C237.824 637.266 245.975 637.157 248.292 636.896L248.741 636.653C253.034 632.142 254.935 626.809 256.51 620.932C254.654 615.502 247.927 609.735 251.581 604.138C254.771 599.253 259.958 596.265 265.462 594.731C269.102 597.637 271.547 599.861 275.66 602.084C290.019 599.176 292.929 594.095 294.747 580.601Z"/><path fill="white" d="M281.458 676.497C268.506 666.006 264.755 647.833 272.495 633.071C280.236 618.31 297.317 611.06 313.312 615.748C329.307 620.437 339.773 635.76 338.319 652.365C337.192 665.25 329.046 676.461 317.139 681.514C305.233 686.567 291.51 684.638 281.458 676.497Z"/><path fill="#9169F6" d="M338.319 652.365C338.879 651.531 339.215 651.056 339.349 650.037C339.383 649.778 339.368 649.511 339.432 649.258C340.269 645.917 358.996 643.131 362.936 640.169C363.516 638.663 363.344 638.551 364.472 637.562L369.158 640.991L369.442 640.572L367.069 638.328C369.23 638.984 370.518 639.156 371.184 641.579C373.724 648.025 373.468 652.226 371.664 658.847C370.935 660.365 370.885 661.04 369.649 661.932C366.179 660.386 364.932 659.253 360.844 660.596C352.12 663.462 350.936 672.837 350.686 680.548C353.165 682.597 357.476 685.05 358.035 688.808C358.928 694.803 349.239 701.993 344.164 702.974C342.348 703.326 337.845 697.915 335.357 696.414C329.345 697.967 322.585 699.906 317.328 703.33C314.997 723.062 314.206 719.716 294.358 718.044C293.265 711.352 292.903 705.531 286.611 701.779C281.585 698.782 277.904 695.484 272.012 697.924L271.731 697.181C266.225 699.799 266.139 702.665 261.249 702.859C259.782 702.171 259.075 701.365 257.897 700.272C260.081 697.195 257.693 699.849 258.926 696.301C260.313 695.721 261.242 695.536 262.019 694.28C261.792 693.034 261.79 693.145 261.134 692.089C262.643 689.072 264.177 686.068 265.735 683.076C269.188 676.496 268.51 676.758 274.533 674.87C275.046 674.093 275.421 673.565 275.994 672.831C277.364 673.164 278.606 675.244 280.562 676.785L281.458 676.497C291.51 684.638 305.233 686.567 317.139 681.514C329.046 676.461 337.192 665.25 338.319 652.365Z"/><path fill="#7E51CF" d="M248.292 636.896L247.938 637.47C244.209 643.42 241.68 646.577 239 653.716C237.849 654.953 238.437 659.56 239.21 660.751L238.799 661.223C233.943 658.367 233.615 642.957 236.774 638.685C237.824 637.266 245.975 637.157 248.292 636.896Z"/><path fill="#7E51CF" d="M261.52 704.727C257.583 701.228 250.081 696.359 247.779 691.761C246.988 690.183 248.128 688.379 248.953 686.93C248.812 688.833 248.529 688.621 249.287 690.027L251.017 690.313C252.038 691.847 252.658 692.899 252.152 694.743C253.699 696.708 255.924 698.232 257.897 700.272C259.075 701.365 259.782 702.171 261.249 702.859C266.139 702.665 266.225 699.799 271.731 697.181L272.012 697.924C269.988 699.522 263.715 703.412 261.52 704.727Z"/><path fill="#300F9A" d="M248.741 636.653C249.023 639.302 242.191 650.654 240.522 653.531L239.728 654.018L239 653.716C241.68 646.577 244.209 643.42 247.938 637.47L248.292 636.896L248.741 636.653Z"/><path fill="#7E51CF" d="M132.315 452.739C127.579 458.767 122.111 465.694 114.557 468.073C100.794 472.408 86.6144 464.378 82.5414 450.699C80.6394 444.309 81.5098 437.413 84.9403 431.695C88.3117 425.953 93.8849 421.243 100.398 419.791C119.046 415.635 130.242 427.791 133.754 444.178C133.635 447.635 133.688 449.47 132.315 452.739Z"/><path fill="white" d="M103.788 429.363C111.68 427.591 119.509 432.569 121.251 440.467C122.994 448.365 117.986 456.176 110.082 457.888C102.219 459.592 94.4589 454.617 92.7257 446.761C90.9924 438.904 95.9386 431.126 103.788 429.363Z"/><path fill="#7E51CF" d="M762.92 723.977C773.171 716.104 787.768 717.511 796.327 727.197C804.885 736.884 804.484 751.543 795.407 760.747C786.331 769.95 771.679 770.556 761.874 762.133C752.069 753.71 750.459 739.133 758.189 728.774C759.539 726.965 761.13 725.351 762.92 723.977Z"/><path fill="white" d="M774.876 728.837C782.944 727.102 790.889 732.243 792.612 740.315C794.334 748.386 789.18 756.323 781.106 758.033C773.05 759.738 765.135 754.598 763.416 746.545C761.698 738.492 766.825 730.569 774.876 728.837Z"/><path fill="#7E51CF" d="M852.355 512.293C855.037 499.901 866.709 491.585 879.298 493.1C891.886 494.614 901.254 505.461 900.919 518.136C900.584 530.811 890.657 541.148 878.007 541.996C865.356 542.844 854.138 533.924 852.115 521.408C851.625 518.381 851.707 515.29 852.355 512.293Z"/><path fill="white" d="M873.739 503.417C881.542 501.976 889.044 507.11 890.524 514.906C892.005 522.702 886.908 530.229 879.119 531.749C871.276 533.279 863.684 528.138 862.193 520.287C860.701 512.436 865.88 504.869 873.739 503.417Z"/><path fill="#7E51CF" d="M747.353 242.756C745.387 236.516 745.095 230.159 748.107 224.145C750.463 219.347 754.64 215.69 759.707 213.989C765.195 212.196 771.019 213.254 775.996 215.95C802.028 230.05 779.17 268.224 753.828 251.426C752.582 250.6 751.424 249.646 750.375 248.58C749.876 247.036 748.209 244.294 747.353 242.756Z"/><path fill="white" d="M764.16 221.92C770.987 220.699 777.519 225.219 778.784 232.038C780.048 238.857 775.572 245.418 768.761 246.727C761.887 248.048 755.252 243.521 753.976 236.639C752.699 229.757 757.27 223.151 764.16 221.92Z"/><path fill="#CAB5F7" d="M238.316 670.417C240.061 670.487 240.109 670.388 241.711 671.231C242.337 672.093 242.985 672.803 242.76 674.043C241.535 680.796 228.124 692.371 223.089 696.499C226.944 703.17 228.609 707.657 224.762 715.181C222.392 719.895 218.175 723.416 213.114 724.906C206.679 726.789 201.063 725.241 195.406 722.226C177.188 707.35 195.716 676.832 220.251 693.427C220.491 692.496 220.762 691.573 221.065 690.66C222.985 684.931 232.338 673.309 238.316 670.417Z"/><path fill="white" d="M203.942 696.375C207.823 695.181 212.046 696.172 214.992 698.966C217.937 701.76 219.148 705.925 218.161 709.864C217.173 713.802 214.14 716.903 210.225 717.977C204.298 719.602 198.163 716.17 196.447 710.269C194.731 704.368 198.068 698.181 203.942 696.375Z"/><path fill="#E7E3F5" d="M627.071 773.86L627.624 774.562C629.404 776.779 633.051 779.653 634.474 781.641C639.345 788.445 645.481 796.502 649.811 803.532C652.074 803.045 654.516 802.406 656.835 802.469C664.416 802.673 670.549 808.717 672.01 815.961C672.908 820.593 671.892 825.391 669.195 829.263C664.388 836.178 652.725 838.155 646.592 832.782C637.052 824.425 638.626 816.851 644.236 807.763C636.348 797.719 630.385 789.56 623.321 778.949L627.071 773.86Z"/><path fill="white" d="M655.36 810.593C666.238 811.161 668.117 824.44 657.711 826.624C646.747 824.995 643.877 815.597 655.36 810.593Z"/><path fill="#B9A0EF" d="M765.534 369.513C785.689 370.061 805.853 370.281 826.016 370.173C825.425 387.599 825.57 407.88 826.087 425.288C835.384 430.719 834.483 441.54 824.814 446.238C822.259 446.475 820.163 446.312 817.613 446.198L817.468 446.107C807.258 439.794 810.526 430.841 819.237 425.066C819.637 412.861 819.671 388.831 818.823 376.942C801.969 376.395 782.452 376.564 765.596 376.774L765.534 369.513Z"/><path fill="#B9A0EF" d="M747.353 242.756C748.209 244.294 749.876 247.036 750.375 248.58C739.145 258.866 726.645 267.101 714.496 276.202C711.908 278.142 702.583 283.745 701.43 285.25C696.259 286.394 692.757 290.463 688.362 284.593C694.205 277.514 704.005 272.969 711.599 267.74C723.5 259.546 734.872 249.99 747.353 242.756Z"/><path fill="#B9A0EF" d="M707.59 677.812C722.966 695.27 745.504 707.029 762.92 723.977C761.13 725.351 759.539 726.965 758.189 728.774C750.58 724.649 745.73 720.245 739.045 714.855C732.214 709.409 725.273 704.101 718.225 698.938C710.587 693.243 709.133 692.283 700.677 688.278C702.554 684.797 705.295 681.095 707.59 677.812Z"/><path fill="#E7E3F5" d="M743.101 646.124L749.875 646.136C748.804 651.267 746.998 656.354 750.921 660.809C755.6 666.122 764.452 664.438 769.098 659.943C773.067 656.102 772.683 653.169 772.817 648.301C774.35 647.727 773.565 647.79 775.261 648.272C777.401 650.308 777.533 652.077 777.646 654.89C773.67 676.36 748.35 676.387 742.249 656.213C741.265 652.961 741.412 649.088 743.101 646.124Z"/><defs><linearGradient id="gradient_6" gradientUnits="userSpaceOnUse" x1="850.17664" y1="517.61206" x2="819.72015" y2="512.3175"><stop offset="0" stop-color="#966FDE"/><stop offset="1" stop-color="#AB8BED"/></linearGradient></defs><path fill="url(#gradient_6)" d="M818.661 510.704C820.746 510.581 828.367 511.263 830.823 511.404C837.998 511.764 845.176 512.061 852.355 512.293C851.707 515.29 851.625 518.381 852.115 521.408C850.617 520.572 824.68 518.768 819.609 517.819C819.082 515.304 818.915 513.245 818.661 510.704Z"/><path fill="#CAB5F7" d="M505.765 629.755L506.367 630.163C512.65 634.388 526.518 639.155 530.594 645.302C531.197 646.212 530.343 647.462 529.897 648.286C528.619 649.225 527.446 649.682 525.879 649.29C519.706 647.748 505.934 638.944 501.448 635.093C503.671 632.882 504.061 632.444 505.765 629.755Z"/><path fill="#B9A0EF" d="M486.616 690.931L488.305 689.855C490.175 690.36 490.501 690.932 491.53 692.742C492.127 693.808 492.711 694.881 493.281 695.962C490.782 700.838 484.157 713.677 478.256 704.791C475.444 701.119 483.72 692.927 486.616 690.931Z"/><path fill="#CAB5F7" d="M487.38 692.631C489.24 693.065 488.436 692.623 489.787 694.156C490.161 697.943 484.709 705.002 480.537 705.512L479.43 704.997C481.818 699.247 487.053 702.627 487.38 692.631Z"/><path fill="#CAB5F7" d="M501.485 668.496C503.108 671.873 499.805 673.099 500.044 676.36C498.662 678.772 491.218 686.543 488.505 687.099L488.054 686.477C488.661 681.233 497.063 670.967 501.485 668.496Z"/><path fill="#CCC6F4" d="M501.485 668.496C511.13 668.467 515.77 673.072 506.163 679.817C503.964 678.194 502.657 676.868 500.044 676.36C499.805 673.099 503.108 671.873 501.485 668.496Z"/></svg>
